<svg xmlns="http://www.w3.org/2000/svg" viewBox="0 0 1600 1000" fill="none">
<defs><radialGradient id="fade" cx="60%" cy="38%" r="75%"><stop offset="0%" stop-color="#fff" stop-opacity="1"/><stop offset="55%" stop-color="#fff" stop-opacity="0.55"/><stop offset="100%" stop-color="#fff" stop-opacity="0"/></radialGradient><mask id="m"><rect width="100%" height="100%" fill="url(#fade)"/></mask></defs>
<g mask="url(#m)" stroke="#ffffff" stroke-width="1.1" stroke-opacity="0.5">
<path d="M 1651.7 300.0 Q 1651.7 300.0 1639.1 318.2 Q 1626.5 336.4 1605.8 351.9 Q 1585.0 367.3 1569.3 381.6 Q 1553.7 396.0 1547.2 412.5 Q 1540.7 429.1 1534.3 447.3 Q 1527.8 465.5 1510.8 480.0 Q 1493.8 494.6 1466.3 501.8 Q 1438.8 509.1 1409.1 511.6 Q 1379.3 514.1 1353.0 516.8 Q 1326.7 519.6 1302.6 523.8 Q 1278.5 527.9 1253.9 530.2 Q 1229.3 532.4 1204.7 531.6 Q 1180.0 530.9 1155.3 531.6 Q 1130.7 532.4 1102.3 538.9 Q 1073.9 545.4 1038.9 554.5 Q 1003.9 563.6 967.1 565.9 Q 930.2 568.2 901.8 558.0 Q 873.4 547.7 858.5 528.2 Q 843.5 508.6 836.8 487.5 Q 830.1 466.5 824.1 448.0 Q 818.0 429.6 812.3 412.7 Q 806.6 395.9 805.9 379.1 Q 805.2 362.3 808.8 346.1 Q 812.3 330.0 812.0 315.0 Q 811.7 300.0 802.7 284.2 Q 793.7 268.5 783.7 250.5 Q 773.6 232.5 775.6 214.6 Q 777.6 196.7 795.4 182.7 Q 813.3 168.7 837.3 158.6 Q 861.4 148.4 880.6 137.4 Q 899.9 126.3 913.6 111.1 Q 927.4 95.9 943.4 79.5 Q 959.3 63.0 982.3 50.8 Q 1005.3 38.5 1033.2 31.7 Q 1061.1 24.9 1090.4 20.5 Q 1119.7 16.0 1149.9 13.1 Q 1180.0 10.1 1210.2 13.0 Q 1240.3 16.0 1265.8 29.2 Q 1291.3 42.4 1308.4 62.4 Q 1325.4 82.4 1337.8 99.8 Q 1350.2 117.2 1367.5 125.8 Q 1384.8 134.5 1411.2 137.4 Q 1437.5 140.3 1467.0 144.9 Q 1496.5 149.4 1521.0 159.3 Q 1545.5 169.2 1564.1 182.9 Q 1582.7 196.6 1599.6 212.0 Q 1616.6 227.5 1630.9 244.8 Q 1645.2 262.0 1648.4 281.0 Z"/>
<path d="M 1574.7 299.9 Q 1574.7 299.9 1563.8 315.1 Q 1552.8 330.3 1540.5 344.0 Q 1528.2 357.6 1520.7 371.4 Q 1513.2 385.3 1509.7 400.8 Q 1506.3 416.4 1498.7 432.0 Q 1491.2 447.5 1472.4 458.3 Q 1453.7 469.0 1425.5 471.9 Q 1397.2 474.7 1368.3 472.4 Q 1339.4 470.1 1317.0 470.1 Q 1294.6 470.1 1277.8 477.5 Q 1260.9 485.0 1243.3 498.1 Q 1225.8 511.1 1203.4 523.1 Q 1180.9 535.0 1154.8 540.3 Q 1128.7 545.7 1102.1 544.9 Q 1075.4 544.1 1049.0 540.5 Q 1022.6 537.0 995.6 532.5 Q 968.6 527.9 942.9 520.5 Q 917.3 513.0 897.6 500.4 Q 878.0 487.8 866.6 471.3 Q 855.2 454.9 847.4 438.5 Q 839.5 422.2 826.9 408.1 Q 814.2 394.1 794.2 380.8 Q 774.2 367.5 755.2 351.9 Q 736.2 336.2 731.3 318.1 Q 726.3 299.9 741.0 282.6 Q 755.7 265.2 782.9 251.8 Q 810.1 238.3 836.3 228.2 Q 862.5 218.2 879.9 208.3 Q 897.3 198.4 908.4 187.0 Q 919.5 175.6 931.3 164.0 Q 943.1 152.5 959.1 143.0 Q 975.0 133.5 993.1 125.6 Q 1011.2 117.6 1029.1 108.6 Q 1047.1 99.6 1066.1 89.0 Q 1085.2 78.3 1107.7 69.9 Q 1130.3 61.5 1155.6 60.4 Q 1180.9 59.3 1205.1 65.9 Q 1229.2 72.5 1250.5 81.1 Q 1271.8 89.6 1294.2 93.3 Q 1316.5 97.0 1345.3 94.8 Q 1374.1 92.5 1409.1 89.9 Q 1444.0 87.4 1476.9 91.7 Q 1509.8 96.0 1531.7 109.3 Q 1553.6 122.7 1562.8 141.3 Q 1571.9 160.0 1574.4 179.1 Q 1576.9 198.2 1578.9 215.9 Q 1580.9 233.5 1582.1 250.3 Q 1583.3 267.1 1579.0 283.5 Z"/>
<path d="M 1479.8 300.3 Q 1479.8 300.3 1497.4 314.0 Q 1515.1 327.7 1526.0 343.6 Q 1536.9 359.6 1535.9 375.5 Q 1535.0 391.5 1524.2 405.6 Q 1513.4 419.6 1498.1 432.0 Q 1482.7 444.3 1466.3 456.0 Q 1449.9 467.6 1432.3 478.7 Q 1414.6 489.8 1394.4 499.3 Q 1374.2 508.8 1351.6 516.1 Q 1329.1 523.4 1305.4 529.4 Q 1281.6 535.4 1257.0 541.0 Q 1232.3 546.7 1206.2 550.7 Q 1180.0 554.7 1153.3 553.6 Q 1126.5 552.5 1102.7 543.5 Q 1078.8 534.5 1061.6 518.9 Q 1044.4 503.3 1033.7 486.2 Q 1022.9 469.0 1013.9 455.4 Q 1005.0 441.8 992.5 433.0 Q 980.1 424.3 963.4 417.8 Q 946.7 411.3 929.7 403.7 Q 912.7 396.0 899.9 385.8 Q 887.0 375.6 879.3 363.6 Q 871.6 351.5 866.9 338.9 Q 862.2 326.3 859.0 313.3 Q 855.8 300.3 855.2 287.0 Q 854.7 273.8 858.2 260.6 Q 861.8 247.4 868.2 234.7 Q 874.6 221.9 880.2 208.4 Q 885.8 195.0 888.7 179.0 Q 891.6 163.1 895.0 144.4 Q 898.4 125.7 908.5 107.3 Q 918.5 89.0 938.8 76.0 Q 959.0 63.0 987.2 58.4 Q 1015.3 53.7 1045.4 56.1 Q 1075.5 58.5 1103.1 63.3 Q 1130.7 68.2 1155.4 71.9 Q 1180.0 75.6 1203.4 78.2 Q 1226.7 80.7 1249.3 84.2 Q 1271.9 87.7 1293.0 93.7 Q 1314.0 99.8 1332.9 107.8 Q 1351.8 115.9 1368.9 124.9 Q 1386.0 133.9 1401.1 143.9 Q 1416.2 153.9 1426.9 165.8 Q 1437.6 177.8 1441.3 191.6 Q 1445.0 205.5 1442.9 219.4 Q 1440.8 233.3 1439.2 245.4 Q 1437.6 257.5 1443.7 267.9 Q 1449.7 278.3 1464.7 289.3 Z"/>
<path d="M 1533.7 300.1 Q 1533.7 300.1 1524.5 313.8 Q 1515.3 327.6 1499.2 339.2 Q 1483.1 350.8 1468.2 360.8 Q 1453.3 370.8 1440.1 380.0 Q 1426.9 389.2 1410.9 396.2 Q 1394.9 403.3 1376.6 407.6 Q 1358.4 412.0 1343.3 416.8 Q 1328.3 421.6 1318.1 430.6 Q 1307.9 439.7 1297.6 451.8 Q 1287.3 463.9 1272.4 473.9 Q 1257.4 484.0 1238.4 489.9 Q 1219.5 495.8 1198.7 500.2 Q 1177.9 504.7 1155.2 509.1 Q 1132.6 513.5 1108.7 514.4 Q 1084.8 515.4 1063.5 509.3 Q 1042.2 503.2 1025.5 492.4 Q 1008.8 481.6 993.6 471.5 Q 978.4 461.3 961.1 453.2 Q 943.9 445.2 927.0 436.3 Q 910.2 427.4 898.3 415.9 Q 886.5 404.4 878.3 391.8 Q 870.0 379.1 860.1 366.8 Q 850.2 354.5 839.4 341.5 Q 828.6 328.6 825.4 314.3 Q 822.1 300.1 831.3 286.3 Q 840.5 272.5 856.6 260.9 Q 872.7 249.4 887.6 239.3 Q 902.5 229.3 915.7 220.1 Q 928.9 210.9 944.9 203.9 Q 960.9 196.8 979.2 192.5 Q 997.4 188.2 1012.5 183.4 Q 1027.5 178.6 1037.7 169.5 Q 1047.9 160.4 1058.2 148.3 Q 1068.5 136.3 1083.4 126.2 Q 1098.4 116.2 1117.4 110.2 Q 1136.3 104.3 1157.1 99.9 Q 1177.9 95.5 1200.6 91.0 Q 1223.2 86.6 1247.1 85.7 Q 1270.9 84.8 1292.3 90.8 Q 1313.6 96.9 1330.3 107.7 Q 1347.0 118.5 1362.2 128.7 Q 1377.4 138.8 1394.7 146.9 Q 1411.9 155.0 1428.8 163.8 Q 1445.6 172.7 1457.5 184.2 Q 1469.3 195.7 1477.5 208.4 Q 1485.8 221.0 1495.7 233.3 Q 1505.6 245.6 1516.4 258.6 Q 1527.2 271.6 1530.4 285.8 Z"/>
<path d="M 1431.3 302.1 Q 1431.3 302.1 1431.8 312.3 Q 1432.3 322.6 1434.8 333.6 Q 1437.3 344.6 1441.2 357.3 Q 1445.1 369.9 1446.1 383.6 Q 1447.1 397.3 1440.2 409.7 Q 1433.3 422.1 1417.9 430.7 Q 1402.5 439.3 1382.9 444.3 Q 1363.2 449.2 1344.6 453.4 Q 1325.9 457.5 1309.5 463.6 Q 1293.2 469.7 1276.5 476.9 Q 1259.8 484.1 1240.6 488.0 Q 1221.5 492.0 1201.3 489.1 Q 1181.2 486.2 1163.5 477.4 Q 1145.8 468.5 1131.8 458.6 Q 1117.8 448.7 1104.6 442.6 Q 1091.4 436.4 1075.3 434.7 Q 1059.3 433.0 1039.9 432.4 Q 1020.5 431.9 1001.1 428.8 Q 981.7 425.7 965.6 419.0 Q 949.5 412.3 936.9 403.2 Q 924.3 394.0 913.7 383.8 Q 903.0 373.5 894.0 362.4 Q 884.9 351.3 879.5 339.2 Q 874.2 327.1 874.5 314.6 Q 874.8 302.1 879.7 290.0 Q 884.7 277.9 891.2 266.4 Q 897.8 255.0 904.5 243.9 Q 911.3 232.8 920.4 222.4 Q 929.4 212.0 943.7 204.0 Q 958.0 195.9 977.1 191.7 Q 996.1 187.4 1015.3 185.5 Q 1034.5 183.6 1049.5 180.2 Q 1064.5 176.8 1075.6 168.7 Q 1086.6 160.6 1098.2 148.8 Q 1109.8 137.0 1125.7 126.6 Q 1141.7 116.1 1161.4 111.9 Q 1181.2 107.8 1201.2 110.5 Q 1221.3 113.1 1239.5 118.9 Q 1257.8 124.7 1275.5 129.5 Q 1293.2 134.4 1312.2 137.7 Q 1331.2 141.0 1350.4 145.4 Q 1369.6 149.8 1385.0 158.0 Q 1400.5 166.1 1409.2 177.8 Q 1417.9 189.4 1420.8 202.3 Q 1423.8 215.2 1424.6 227.3 Q 1425.4 239.4 1426.6 250.2 Q 1427.8 261.1 1429.1 271.4 Q 1430.4 281.7 1430.8 291.9 Z"/>
<path d="M 1431.9 298.3 Q 1431.9 298.3 1430.2 308.6 Q 1428.5 318.9 1426.0 329.2 Q 1423.5 339.5 1422.5 350.4 Q 1421.5 361.4 1420.4 373.5 Q 1419.2 385.5 1414.0 397.4 Q 1408.7 409.2 1396.3 418.3 Q 1383.9 427.4 1364.9 431.7 Q 1346.0 436.1 1324.5 435.6 Q 1303.0 435.2 1283.1 432.3 Q 1263.1 429.5 1246.7 427.3 Q 1230.3 425.1 1216.4 425.4 Q 1202.6 425.7 1189.0 428.0 Q 1175.5 430.3 1160.9 432.8 Q 1146.4 435.3 1130.9 436.4 Q 1115.4 437.4 1099.5 436.5 Q 1083.7 435.6 1067.8 433.3 Q 1052.0 430.9 1035.8 427.6 Q 1019.5 424.3 1003.0 419.9 Q 986.5 415.4 970.7 409.3 Q 954.9 403.2 941.6 395.0 Q 928.4 386.7 919.4 376.5 Q 910.5 366.3 906.7 354.9 Q 903.0 343.5 904.4 331.9 Q 905.8 320.3 911.9 309.3 Q 917.9 298.3 927.5 288.5 Q 937.2 278.8 948.6 270.6 Q 960.1 262.5 970.9 255.5 Q 981.8 248.5 990.1 241.7 Q 998.3 234.8 1003.4 226.8 Q 1008.5 218.8 1012.3 209.1 Q 1016.0 199.4 1021.5 188.8 Q 1027.0 178.2 1036.5 168.7 Q 1046.0 159.2 1059.7 152.4 Q 1073.5 145.6 1089.8 141.7 Q 1106.1 137.8 1123.3 135.5 Q 1140.4 133.2 1158.0 131.1 Q 1175.5 129.0 1193.9 127.1 Q 1212.2 125.3 1231.1 125.6 Q 1250.0 125.9 1267.1 130.6 Q 1284.3 135.4 1296.6 145.2 Q 1308.9 154.9 1315.1 167.7 Q 1321.2 180.5 1323.5 192.8 Q 1325.8 205.1 1329.1 214.3 Q 1332.4 223.6 1340.9 229.8 Q 1349.3 236.0 1362.9 241.3 Q 1376.5 246.6 1391.0 253.3 Q 1405.4 260.1 1415.5 269.0 Q 1425.5 277.8 1428.7 288.0 Z"/>
<path d="M 1406.9 303.3 Q 1406.9 303.3 1395.5 311.9 Q 1384.1 320.4 1374.9 327.7 Q 1365.7 335.1 1360.7 342.4 Q 1355.7 349.8 1352.9 358.0 Q 1350.1 366.2 1345.8 374.4 Q 1341.4 382.7 1333.0 389.5 Q 1324.5 396.3 1312.7 400.8 Q 1300.8 405.3 1287.7 408.1 Q 1274.7 410.9 1262.3 413.5 Q 1249.8 416.0 1237.9 419.1 Q 1225.9 422.1 1213.4 424.8 Q 1200.9 427.6 1187.7 428.3 Q 1174.5 429.0 1161.6 427.0 Q 1148.7 425.0 1136.9 421.5 Q 1125.0 417.9 1113.4 415.1 Q 1101.8 412.2 1088.2 411.4 Q 1074.6 410.6 1057.6 411.1 Q 1040.7 411.5 1021.8 410.6 Q 1002.9 409.8 986.0 405.4 Q 969.1 401.0 958.2 392.8 Q 947.2 384.7 943.1 374.2 Q 939.0 363.8 939.4 353.0 Q 939.8 342.3 941.4 332.3 Q 943.0 322.2 944.5 312.8 Q 946.0 303.3 948.8 294.2 Q 951.6 285.1 957.7 276.7 Q 963.8 268.3 973.4 261.2 Q 983.1 254.1 993.9 248.3 Q 1004.7 242.5 1013.9 236.9 Q 1023.0 231.2 1029.7 224.5 Q 1036.4 217.7 1042.7 209.8 Q 1049.0 201.9 1057.9 194.7 Q 1066.7 187.5 1079.1 183.3 Q 1091.6 179.2 1106.3 179.2 Q 1120.9 179.2 1135.1 181.9 Q 1149.3 184.6 1161.9 187.3 Q 1174.5 190.0 1186.5 190.5 Q 1198.4 191.0 1211.4 189.4 Q 1224.4 187.8 1239.1 186.2 Q 1253.8 184.7 1269.0 185.2 Q 1284.1 185.6 1298.2 188.8 Q 1312.3 192.0 1325.3 196.9 Q 1338.2 201.9 1351.0 207.6 Q 1363.8 213.2 1377.1 219.7 Q 1390.3 226.1 1402.1 234.0 Q 1413.9 241.8 1420.4 251.6 Q 1427.0 261.4 1425.5 272.1 Q 1424.1 282.9 1415.5 293.1 Z"/>
<path d="M 1373.6 294.3 Q 1373.6 294.3 1369.2 301.7 Q 1364.8 309.1 1362.7 316.5 Q 1360.6 323.8 1358.8 331.4 Q 1357.0 339.0 1352.0 346.0 Q 1347.0 353.0 1336.8 357.8 Q 1326.5 362.6 1312.7 364.3 Q 1298.8 366.1 1285.3 366.0 Q 1271.7 365.9 1261.6 366.9 Q 1251.6 367.9 1245.0 372.6 Q 1238.5 377.3 1232.4 385.9 Q 1226.3 394.5 1217.4 404.2 Q 1208.4 413.9 1195.7 420.6 Q 1183.0 427.3 1168.7 428.1 Q 1154.4 429.0 1141.5 424.5 Q 1128.7 420.0 1118.5 413.1 Q 1108.3 406.1 1099.3 399.9 Q 1090.4 393.8 1080.4 389.5 Q 1070.5 385.2 1059.2 381.7 Q 1047.9 378.1 1037.8 373.1 Q 1027.8 368.2 1022.7 360.8 Q 1017.7 353.5 1019.2 344.7 Q 1020.8 336.0 1026.7 327.6 Q 1032.6 319.3 1037.9 312.5 Q 1043.1 305.7 1043.2 300.0 Q 1043.3 294.3 1037.5 288.1 Q 1031.7 282.0 1023.3 274.2 Q 1014.9 266.4 1008.8 257.2 Q 1002.7 248.0 1002.6 238.8 Q 1002.6 229.7 1009.0 222.1 Q 1015.5 214.6 1026.3 209.2 Q 1037.2 203.9 1049.6 200.2 Q 1062.0 196.5 1074.2 193.5 Q 1086.4 190.6 1098.2 187.7 Q 1109.9 184.9 1121.8 182.5 Q 1133.7 180.1 1146.0 179.1 Q 1158.3 178.2 1170.7 179.4 Q 1183.0 180.7 1194.3 184.3 Q 1205.6 188.0 1215.0 193.2 Q 1224.5 198.4 1232.3 203.6 Q 1240.1 208.8 1247.8 212.6 Q 1255.5 216.4 1265.2 218.2 Q 1274.9 220.0 1288.0 220.6 Q 1301.0 221.2 1316.5 222.3 Q 1332.1 223.4 1347.1 226.8 Q 1362.1 230.2 1372.6 236.6 Q 1383.0 242.9 1386.6 251.4 Q 1390.1 259.9 1387.3 268.9 Q 1384.6 277.8 1379.1 286.1 Z"/>
<path d="M 1335.8 306.6 Q 1335.8 306.6 1336.3 312.7 Q 1336.8 318.7 1337.6 325.1 Q 1338.3 331.5 1337.6 338.1 Q 1336.9 344.7 1334.5 351.4 Q 1332.2 358.0 1328.5 364.7 Q 1324.8 371.4 1318.8 377.5 Q 1312.8 383.7 1303.3 387.6 Q 1293.8 391.6 1281.4 392.3 Q 1269.1 393.1 1256.8 391.7 Q 1244.5 390.4 1234.4 389.8 Q 1224.2 389.1 1215.6 391.0 Q 1206.9 392.9 1197.7 395.7 Q 1188.6 398.6 1178.7 399.2 Q 1168.8 399.9 1159.9 396.8 Q 1150.9 393.7 1144.2 388.4 Q 1137.4 383.2 1131.9 378.3 Q 1126.4 373.4 1120.5 369.9 Q 1114.5 366.5 1107.6 363.7 Q 1100.8 361.0 1093.6 358.1 Q 1086.4 355.2 1078.9 351.9 Q 1071.4 348.6 1063.2 344.7 Q 1055.0 340.9 1047.5 336.1 Q 1040.0 331.3 1036.2 325.3 Q 1032.4 319.4 1033.7 313.0 Q 1035.1 306.6 1039.0 300.7 Q 1042.9 294.7 1044.9 288.9 Q 1046.9 283.1 1045.3 276.2 Q 1043.7 269.4 1042.0 261.5 Q 1040.2 253.5 1043.2 246.2 Q 1046.1 238.8 1055.0 234.1 Q 1063.9 229.3 1075.9 227.3 Q 1087.9 225.3 1099.5 224.4 Q 1111.2 223.5 1121.4 222.4 Q 1131.6 221.3 1141.2 220.2 Q 1150.8 219.1 1160.3 218.6 Q 1169.8 218.1 1179.2 218.1 Q 1188.6 218.0 1198.0 218.1 Q 1207.3 218.2 1216.7 219.0 Q 1226.1 219.8 1234.3 222.8 Q 1242.5 225.8 1248.2 231.2 Q 1253.9 236.5 1257.4 242.3 Q 1261.0 248.1 1265.8 251.9 Q 1270.5 255.8 1279.1 257.6 Q 1287.8 259.4 1299.1 261.2 Q 1310.5 263.0 1319.9 266.7 Q 1329.4 270.5 1333.5 276.1 Q 1337.6 281.8 1337.5 288.2 Q 1337.4 294.5 1336.6 300.5 Z"/>
<path d="M 551.4 760.0 Q 551.4 760.0 547.6 770.8 Q 543.9 781.5 539.2 791.9 Q 534.5 802.3 528.3 812.2 Q 522.2 822.2 516.6 832.4 Q 511.0 842.7 507.8 854.8 Q 504.6 866.8 502.2 881.6 Q 499.8 896.3 493.5 911.9 Q 487.3 927.5 473.5 940.2 Q 459.7 953.0 438.7 959.6 Q 417.8 966.3 393.6 966.6 Q 369.4 966.9 345.9 963.2 Q 322.4 959.5 301.2 954.1 Q 280.0 948.7 261.3 942.2 Q 242.7 935.7 226.8 927.8 Q 210.9 919.9 197.8 911.2 Q 184.7 902.6 172.7 895.4 Q 160.6 888.2 145.8 884.3 Q 131.0 880.4 110.8 878.9 Q 90.6 877.4 66.5 875.2 Q 42.4 873.0 19.9 867.1 Q -2.7 861.2 -18.6 851.0 Q -34.5 840.8 -42.4 827.8 Q -50.3 814.9 -52.5 801.1 Q -54.8 787.3 -53.5 773.7 Q -52.3 760.0 -46.9 746.9 Q -41.5 733.8 -30.5 722.0 Q -19.5 710.2 -3.7 700.7 Q 12.0 691.2 28.4 683.5 Q 44.7 675.8 57.5 668.0 Q 70.2 660.2 79.2 650.6 Q 88.1 641.1 97.0 630.1 Q 105.8 619.2 118.2 609.5 Q 130.7 599.7 147.6 593.4 Q 164.4 587.0 183.5 584.0 Q 202.6 581.0 222.0 579.4 Q 241.3 577.7 260.6 576.1 Q 280.0 574.4 299.9 573.6 Q 319.8 572.8 339.5 574.6 Q 359.3 576.4 377.7 581.4 Q 396.0 586.3 412.9 592.7 Q 429.8 599.1 447.1 605.1 Q 464.3 611.0 483.3 616.6 Q 502.3 622.2 521.0 629.3 Q 539.7 636.5 553.4 646.8 Q 567.1 657.2 572.1 670.5 Q 577.2 683.7 574.7 697.6 Q 572.1 711.5 566.5 724.3 Q 560.9 737.1 556.2 748.5 Z"/>
<path d="M 554.7 759.4 Q 554.7 759.4 549.5 770.2 Q 544.4 781.0 537.3 791.0 Q 530.3 801.1 525.8 811.3 Q 521.4 821.5 519.8 833.2 Q 518.2 844.9 515.5 857.6 Q 512.8 870.4 504.1 881.9 Q 495.5 893.3 479.3 900.6 Q 463.2 907.9 442.3 909.9 Q 421.4 911.9 400.2 910.3 Q 379.1 908.6 360.5 906.4 Q 341.9 904.1 325.9 903.5 Q 309.8 902.8 294.6 903.7 Q 279.4 904.6 263.8 905.4 Q 248.2 906.2 232.3 905.7 Q 216.3 905.2 200.2 903.6 Q 184.1 902.0 167.1 900.1 Q 150.1 898.2 131.4 896.1 Q 112.7 894.0 93.1 890.5 Q 73.6 886.9 56.5 880.2 Q 39.4 873.5 28.9 863.2 Q 18.3 852.8 15.8 840.3 Q 13.2 827.7 15.9 815.2 Q 18.6 802.7 21.3 791.4 Q 24.1 780.2 23.4 769.8 Q 22.7 759.4 19.8 748.7 Q 16.9 737.9 16.7 726.8 Q 16.4 715.7 23.1 705.5 Q 29.9 695.3 43.7 687.6 Q 57.5 680.0 74.1 674.8 Q 90.7 669.6 105.0 664.9 Q 119.3 660.1 129.3 653.2 Q 139.3 646.2 147.4 636.3 Q 155.4 626.3 165.4 615.1 Q 175.5 603.9 189.9 594.7 Q 204.2 585.5 222.3 580.7 Q 240.4 575.8 259.9 575.3 Q 279.4 574.7 298.5 576.9 Q 317.6 579.2 335.8 582.9 Q 354.0 586.6 370.8 591.9 Q 387.7 597.2 401.9 604.9 Q 416.1 612.5 426.3 622.4 Q 436.6 632.3 443.2 643.0 Q 449.8 653.7 455.6 663.2 Q 461.5 672.7 470.3 680.3 Q 479.0 687.9 491.9 694.7 Q 504.7 701.5 518.6 709.4 Q 532.5 717.3 542.0 727.2 Q 551.5 737.2 553.1 748.3 Z"/>
<path d="M 469.5 760.8 Q 469.5 760.8 476.9 769.1 Q 484.3 777.4 490.4 787.0 Q 496.6 796.6 496.1 806.2 Q 495.7 815.9 488.3 824.0 Q 480.9 832.2 470.1 838.8 Q 459.3 845.4 448.5 851.6 Q 437.8 857.8 427.6 864.3 Q 417.5 870.8 406.5 877.1 Q 395.4 883.3 382.8 888.5 Q 370.1 893.7 356.3 898.1 Q 342.6 902.5 328.0 907.3 Q 313.5 912.2 297.4 917.6 Q 281.4 923.1 263.3 927.0 Q 245.3 930.8 227.0 929.8 Q 208.8 928.8 193.7 921.6 Q 178.7 914.5 168.7 903.5 Q 158.7 892.5 151.8 881.8 Q 144.9 871.0 137.1 863.1 Q 129.3 855.1 118.6 849.2 Q 107.8 843.4 96.3 837.3 Q 84.7 831.2 76.4 823.4 Q 68.0 815.6 64.6 806.5 Q 61.2 797.4 61.4 788.1 Q 61.6 778.7 63.1 769.8 Q 64.6 760.8 67.2 752.2 Q 69.9 743.5 75.3 735.5 Q 80.6 727.5 88.7 720.4 Q 96.9 713.4 105.1 707.0 Q 113.3 700.7 118.4 693.2 Q 123.5 685.7 125.6 675.6 Q 127.6 665.5 130.6 653.4 Q 133.5 641.4 141.8 630.6 Q 150.1 619.8 164.6 613.8 Q 179.1 607.7 196.8 607.0 Q 214.5 606.2 231.9 608.1 Q 249.3 610.0 265.3 611.5 Q 281.4 612.9 297.1 612.8 Q 312.8 612.8 329.0 612.9 Q 345.2 613.0 361.3 615.1 Q 377.3 617.2 392.1 621.6 Q 406.9 626.0 420.5 631.7 Q 434.0 637.4 446.7 644.0 Q 459.3 650.5 469.5 658.5 Q 479.8 666.4 484.6 676.4 Q 489.4 686.3 487.2 697.4 Q 485.1 708.5 478.9 718.7 Q 472.7 729.0 468.7 737.4 Q 464.7 745.8 467.1 753.3 Z"/>
<path d="M 485.4 757.2 Q 485.4 757.2 479.0 764.9 Q 472.6 772.6 461.9 778.8 Q 451.2 785.0 447.1 791.6 Q 443.0 798.2 447.4 807.8 Q 451.8 817.5 455.4 829.1 Q 459.0 840.7 453.9 850.3 Q 448.8 859.8 436.6 865.4 Q 424.3 871.1 410.4 874.8 Q 396.5 878.6 382.5 881.6 Q 368.5 884.5 353.6 884.9 Q 338.7 885.2 324.1 882.7 Q 309.5 880.2 296.4 878.8 Q 283.4 877.5 270.0 880.4 Q 256.6 883.3 241.2 886.8 Q 225.8 890.3 211.9 887.6 Q 198.0 885.0 190.3 875.2 Q 182.6 865.4 179.8 854.2 Q 177.1 843.0 173.0 835.6 Q 168.8 828.2 160.9 823.7 Q 152.9 819.2 144.6 814.5 Q 136.3 809.8 129.6 804.1 Q 123.0 798.4 115.2 792.4 Q 107.4 786.4 98.3 779.7 Q 89.1 773.0 85.2 765.1 Q 81.4 757.2 87.8 749.4 Q 94.1 741.7 104.8 735.5 Q 115.6 729.3 119.6 722.7 Q 123.7 716.2 119.3 706.5 Q 114.9 696.9 111.3 685.2 Q 107.7 673.6 112.8 664.1 Q 117.9 654.6 130.1 648.9 Q 142.4 643.3 156.3 639.5 Q 170.3 635.7 184.3 632.8 Q 198.3 629.8 213.1 629.4 Q 228.0 629.1 242.6 631.6 Q 257.2 634.2 270.3 635.5 Q 283.4 636.9 296.8 634.0 Q 310.1 631.1 325.5 627.6 Q 340.9 624.1 354.8 626.7 Q 368.8 629.3 376.4 639.1 Q 384.1 649.0 386.9 660.1 Q 389.6 671.3 393.8 678.7 Q 397.9 686.2 405.9 690.6 Q 413.8 695.1 422.1 699.8 Q 430.4 704.5 437.1 710.3 Q 443.8 716.0 451.5 722.0 Q 459.3 727.9 468.5 734.6 Q 477.6 741.3 481.5 749.2 Z"/>
<path d="M 422.4 755.7 Q 422.4 755.7 425.2 761.8 Q 428.0 767.9 428.9 774.3 Q 429.8 780.7 427.8 787.1 Q 425.9 793.4 421.8 799.4 Q 417.7 805.3 413.1 811.3 Q 408.5 817.3 404.2 823.9 Q 399.9 830.6 395.0 838.0 Q 390.1 845.4 383.0 852.5 Q 375.8 859.5 365.3 864.3 Q 354.9 869.2 342.0 870.2 Q 329.0 871.3 315.8 868.5 Q 302.5 865.8 290.8 860.8 Q 279.1 855.8 269.6 850.7 Q 260.0 845.5 251.8 841.7 Q 243.6 837.8 235.6 835.4 Q 227.5 832.9 219.0 831.1 Q 210.5 829.4 201.5 827.5 Q 192.6 825.6 183.2 823.3 Q 173.8 821.0 163.9 818.1 Q 153.9 815.3 143.5 811.6 Q 133.1 808.0 123.2 803.1 Q 113.3 798.3 105.9 792.0 Q 98.5 785.7 95.2 778.3 Q 92.0 771.0 93.2 763.3 Q 94.4 755.7 98.6 748.5 Q 102.8 741.3 107.9 734.7 Q 113.0 728.1 117.9 721.8 Q 122.9 715.6 128.3 709.6 Q 133.7 703.6 141.0 698.6 Q 148.3 693.5 158.1 690.1 Q 167.9 686.8 179.2 685.4 Q 190.4 684.1 201.1 683.7 Q 211.8 683.4 220.6 682.3 Q 229.4 681.3 236.8 678.0 Q 244.2 674.8 251.9 669.5 Q 259.7 664.1 269.4 658.3 Q 279.1 652.4 291.0 648.2 Q 302.8 643.9 315.7 642.7 Q 328.5 641.4 340.8 643.2 Q 353.0 645.0 363.8 649.1 Q 374.5 653.2 383.4 658.8 Q 392.3 664.3 399.0 670.7 Q 405.8 677.2 410.0 684.3 Q 414.1 691.5 415.6 698.9 Q 417.1 706.3 416.7 713.4 Q 416.4 720.5 415.8 726.8 Q 415.3 733.1 416.3 738.8 Q 417.2 744.4 419.8 750.1 Z"/>
<path d="M 403.1 760.1 Q 403.1 760.1 402.2 765.2 Q 401.3 770.3 401.7 775.7 Q 402.1 781.0 401.8 786.6 Q 401.4 792.3 398.0 797.4 Q 394.7 802.5 388.5 806.6 Q 382.4 810.7 375.8 814.3 Q 369.2 817.9 363.7 822.2 Q 358.3 826.6 353.2 832.1 Q 348.1 837.5 341.3 842.6 Q 334.5 847.7 325.3 850.2 Q 316.0 852.7 305.6 851.8 Q 295.3 850.9 285.6 848.0 Q 276.0 845.1 267.5 842.3 Q 259.1 839.5 251.3 837.4 Q 243.4 835.4 236.0 833.2 Q 228.6 830.9 222.6 827.3 Q 216.7 823.8 212.7 819.1 Q 208.7 814.4 205.3 810.2 Q 201.9 806.0 196.7 803.1 Q 191.5 800.2 183.6 798.1 Q 175.7 795.9 167.3 793.0 Q 158.9 790.1 153.5 785.7 Q 148.1 781.3 147.1 776.0 Q 146.1 770.7 147.5 765.4 Q 148.9 760.1 149.8 754.9 Q 150.6 749.8 150.2 744.5 Q 149.8 739.1 150.2 733.5 Q 150.6 727.9 153.9 722.7 Q 157.3 717.6 163.4 713.5 Q 169.6 709.4 176.2 705.9 Q 182.8 702.3 188.2 697.9 Q 193.7 693.5 198.7 688.1 Q 203.8 682.6 210.6 677.5 Q 217.4 672.4 226.7 669.9 Q 235.9 667.4 246.3 668.3 Q 256.7 669.2 266.3 672.1 Q 276.0 675.0 284.4 677.8 Q 292.8 680.7 300.7 682.7 Q 308.5 684.7 315.9 686.9 Q 323.3 689.2 329.3 692.8 Q 335.3 696.4 339.3 701.0 Q 343.3 705.7 346.6 709.9 Q 350.0 714.2 355.2 717.0 Q 360.4 719.9 368.3 722.0 Q 376.2 724.2 384.6 727.1 Q 393.0 730.0 398.4 734.4 Q 403.8 738.8 404.9 744.1 Q 405.9 749.5 404.5 754.8 Z"/>
<path d="M 367.8 755.9 Q 367.8 755.9 364.2 759.5 Q 360.6 763.1 359.0 766.6 Q 357.5 770.1 357.1 773.9 Q 356.6 777.6 353.8 780.9 Q 351.1 784.2 345.7 786.3 Q 340.3 788.4 335.4 790.3 Q 330.4 792.2 327.4 795.3 Q 324.5 798.4 321.6 802.2 Q 318.7 806.1 313.9 808.9 Q 309.2 811.7 303.2 813.0 Q 297.1 814.3 291.1 815.9 Q 285.0 817.5 278.4 820.2 Q 271.9 822.9 264.4 824.7 Q 256.9 826.5 249.7 825.3 Q 242.4 824.0 236.8 820.4 Q 231.2 816.7 226.6 813.1 Q 222.0 809.4 217.5 806.5 Q 213.0 803.5 209.7 799.9 Q 206.5 796.4 206.2 791.8 Q 205.9 787.3 206.8 783.1 Q 207.7 778.8 206.1 776.0 Q 204.4 773.2 199.3 771.0 Q 194.3 768.8 189.1 765.9 Q 184.0 763.0 181.2 759.5 Q 178.5 755.9 176.5 751.9 Q 174.6 747.9 171.5 743.3 Q 168.3 738.7 165.9 733.4 Q 163.5 728.0 165.7 723.3 Q 167.8 718.6 174.7 715.8 Q 181.6 712.9 189.6 711.4 Q 197.7 709.9 204.4 708.3 Q 211.2 706.8 217.5 705.5 Q 223.8 704.3 230.9 704.6 Q 237.9 705.0 244.7 706.8 Q 251.4 708.5 256.8 709.3 Q 262.1 710.0 267.0 708.3 Q 271.9 706.7 277.6 704.4 Q 283.3 702.2 289.4 701.6 Q 295.6 701.0 301.5 701.8 Q 307.4 702.6 314.0 703.2 Q 320.5 703.7 328.3 703.8 Q 336.1 704.0 343.2 705.6 Q 350.4 707.2 354.3 711.0 Q 358.2 714.8 359.6 719.4 Q 361.0 724.0 362.9 728.0 Q 364.8 732.0 367.8 735.7 Q 370.9 739.4 372.0 743.5 Q 373.0 747.6 370.4 751.7 Z"/>
<path d="M 1596.7 820.0 Q 1596.7 820.0 1599.4 827.4 Q 1602.0 834.9 1600.5 842.3 Q 1599.0 849.7 1593.0 856.3 Q 1587.1 862.9 1579.6 868.7 Q 1572.1 874.4 1566.2 880.6 Q 1560.4 886.8 1556.6 894.6 Q 1552.9 902.4 1548.7 911.5 Q 1544.5 920.6 1536.9 929.0 Q 1529.2 937.3 1517.3 942.6 Q 1505.5 947.9 1491.1 949.6 Q 1476.7 951.2 1462.0 950.0 Q 1447.4 948.8 1433.7 945.9 Q 1420.0 943.0 1407.8 938.8 Q 1395.7 934.5 1385.5 928.9 Q 1375.3 923.4 1367.1 917.4 Q 1358.9 911.4 1351.2 906.8 Q 1343.6 902.1 1333.9 899.7 Q 1324.3 897.4 1311.2 896.5 Q 1298.1 895.6 1283.2 893.9 Q 1268.4 892.1 1255.7 887.7 Q 1243.1 883.3 1235.8 876.3 Q 1228.5 869.2 1226.2 860.9 Q 1223.9 852.6 1223.5 844.3 Q 1223.1 836.1 1222.2 828.0 Q 1221.2 820.0 1220.2 811.8 Q 1219.2 803.6 1220.4 795.3 Q 1221.7 787.1 1226.8 779.4 Q 1231.9 771.7 1240.1 765.1 Q 1248.3 758.5 1257.8 752.9 Q 1267.3 747.3 1277.3 742.6 Q 1287.4 737.8 1298.5 734.3 Q 1309.5 730.7 1321.7 729.1 Q 1333.9 727.6 1346.1 727.6 Q 1358.3 727.7 1369.1 727.5 Q 1379.9 727.3 1389.5 724.5 Q 1399.1 721.8 1409.6 716.0 Q 1420.0 710.2 1433.0 703.7 Q 1446.1 697.2 1461.3 693.3 Q 1476.4 689.4 1491.2 690.3 Q 1506.1 691.2 1518.3 696.2 Q 1530.5 701.3 1539.8 708.5 Q 1549.1 715.7 1556.4 723.3 Q 1563.6 731.0 1569.1 738.7 Q 1574.7 746.4 1578.0 754.3 Q 1581.3 762.2 1582.5 770.1 Q 1583.7 778.0 1584.4 785.3 Q 1585.0 792.6 1587.2 799.4 Q 1589.4 806.2 1593.1 813.1 Z"/>
<path d="M 1564.2 819.9 Q 1564.2 819.9 1567.0 826.0 Q 1569.7 832.1 1566.0 837.8 Q 1562.3 843.5 1553.5 847.7 Q 1544.8 851.9 1537.2 855.4 Q 1529.5 859.0 1526.9 864.2 Q 1524.2 869.3 1524.4 876.9 Q 1524.5 884.5 1522.3 892.5 Q 1520.0 900.4 1512.9 906.1 Q 1505.8 911.8 1495.7 914.7 Q 1485.6 917.7 1474.9 919.6 Q 1464.2 921.4 1453.4 923.2 Q 1442.6 925.0 1431.4 925.8 Q 1420.3 926.6 1409.2 925.5 Q 1398.1 924.3 1387.5 922.3 Q 1376.9 920.2 1366.0 918.8 Q 1355.0 917.5 1343.1 916.5 Q 1331.2 915.5 1320.4 912.4 Q 1309.6 909.3 1303.8 902.5 Q 1298.0 895.7 1298.2 886.8 Q 1298.3 877.9 1300.1 870.1 Q 1301.8 862.3 1299.8 856.8 Q 1297.7 851.3 1291.4 846.8 Q 1285.1 842.3 1279.5 837.1 Q 1273.9 831.8 1273.3 825.8 Q 1272.8 819.9 1276.5 814.2 Q 1280.3 808.4 1284.5 803.2 Q 1288.7 798.0 1291.6 792.8 Q 1294.5 787.6 1297.7 782.3 Q 1300.8 777.1 1305.5 772.3 Q 1310.1 767.5 1315.1 762.6 Q 1320.1 757.8 1324.0 751.5 Q 1328.0 745.3 1332.2 737.6 Q 1336.4 729.9 1343.9 723.3 Q 1351.3 716.6 1362.4 714.2 Q 1373.6 711.8 1385.8 713.7 Q 1398.1 715.5 1409.2 718.0 Q 1420.3 720.4 1430.8 720.3 Q 1441.4 720.2 1453.3 718.1 Q 1465.1 716.1 1477.6 715.7 Q 1490.2 715.3 1500.6 718.8 Q 1511.1 722.3 1518.1 728.7 Q 1525.1 735.1 1530.0 742.0 Q 1534.8 748.8 1539.0 755.1 Q 1543.2 761.4 1546.0 767.6 Q 1548.9 773.8 1549.4 780.2 Q 1550.0 786.6 1549.9 792.5 Q 1549.8 798.4 1552.1 803.6 Q 1554.5 808.9 1559.4 814.4 Z"/>
<path d="M 1537.2 819.9 Q 1537.2 819.9 1532.4 824.3 Q 1527.7 828.6 1525.4 832.8 Q 1523.1 836.9 1524.2 841.9 Q 1525.4 846.8 1525.9 852.3 Q 1526.5 857.8 1522.3 862.0 Q 1518.0 866.2 1509.7 868.1 Q 1501.3 869.9 1493.4 871.1 Q 1485.5 872.3 1480.2 875.2 Q 1475.0 878.2 1470.5 883.1 Q 1466.1 887.9 1460.1 892.6 Q 1454.1 897.3 1446.3 900.7 Q 1438.5 904.0 1429.6 906.2 Q 1420.7 908.3 1411.2 908.9 Q 1401.7 909.4 1393.0 906.7 Q 1384.4 903.9 1378.5 897.9 Q 1372.6 891.8 1369.2 885.4 Q 1365.7 879.0 1361.3 875.2 Q 1357.0 871.4 1349.6 870.0 Q 1342.3 868.5 1334.3 866.7 Q 1326.2 864.9 1321.4 861.0 Q 1316.5 857.2 1315.1 852.3 Q 1313.6 847.4 1312.9 842.7 Q 1312.1 838.0 1310.7 833.5 Q 1309.3 829.0 1308.4 824.5 Q 1307.5 819.9 1307.0 815.3 Q 1306.5 810.6 1304.3 805.4 Q 1302.1 800.2 1298.2 793.8 Q 1294.2 787.4 1292.9 780.6 Q 1291.5 773.7 1297.1 768.7 Q 1302.6 763.8 1313.8 762.2 Q 1324.9 760.5 1336.3 760.8 Q 1347.8 761.0 1356.3 760.4 Q 1364.8 759.9 1371.4 758.0 Q 1378.1 756.1 1384.8 754.3 Q 1391.6 752.5 1398.8 751.5 Q 1405.9 750.4 1413.3 749.3 Q 1420.7 748.2 1428.5 747.4 Q 1436.3 746.5 1443.9 747.6 Q 1451.5 748.7 1457.6 752.2 Q 1463.6 755.6 1468.8 759.1 Q 1474.0 762.6 1481.4 763.8 Q 1488.8 764.9 1499.9 764.4 Q 1510.9 764.0 1522.4 765.0 Q 1533.9 766.1 1541.1 770.2 Q 1548.2 774.3 1550.1 780.2 Q 1551.9 786.2 1550.9 792.3 Q 1550.0 798.4 1547.7 804.1 Q 1545.4 809.7 1541.3 814.8 Z"/>
<path d="M 1498.4 817.1 Q 1498.4 817.1 1500.0 820.5 Q 1501.7 823.8 1502.9 827.4 Q 1504.2 831.1 1502.8 834.6 Q 1501.5 838.0 1499.0 841.2 Q 1496.5 844.4 1494.9 848.2 Q 1493.3 851.9 1491.9 856.3 Q 1490.5 860.7 1486.8 864.4 Q 1483.2 868.0 1476.9 869.6 Q 1470.5 871.2 1463.5 871.3 Q 1456.5 871.4 1450.1 871.6 Q 1443.8 871.7 1437.8 871.8 Q 1431.9 872.0 1426.0 870.6 Q 1420.2 869.2 1415.3 866.3 Q 1410.4 863.4 1406.3 861.0 Q 1402.3 858.7 1397.7 858.2 Q 1393.1 857.8 1387.3 858.3 Q 1381.5 858.8 1375.6 858.3 Q 1369.7 857.9 1364.5 856.4 Q 1359.4 854.9 1353.6 853.2 Q 1347.9 851.6 1340.8 849.8 Q 1333.7 848.1 1327.6 845.3 Q 1321.5 842.5 1319.5 838.4 Q 1317.5 834.2 1319.4 829.7 Q 1321.3 825.2 1324.0 821.2 Q 1326.6 817.1 1328.6 813.5 Q 1330.6 809.8 1333.5 806.5 Q 1336.5 803.2 1341.7 800.8 Q 1346.9 798.3 1352.3 796.5 Q 1357.6 794.7 1360.5 792.4 Q 1363.4 790.1 1364.5 786.7 Q 1365.6 783.3 1367.6 779.8 Q 1369.6 776.3 1373.6 773.8 Q 1377.6 771.4 1382.4 769.5 Q 1387.1 767.6 1391.8 765.0 Q 1396.5 762.4 1402.0 759.7 Q 1407.4 757.0 1413.8 756.1 Q 1420.2 755.3 1426.5 756.8 Q 1432.7 758.2 1438.3 760.3 Q 1443.9 762.4 1449.5 763.6 Q 1455.1 764.9 1460.9 766.1 Q 1466.7 767.2 1471.2 769.8 Q 1475.7 772.3 1478.3 775.9 Q 1480.9 779.5 1483.3 782.8 Q 1485.7 786.0 1489.3 788.5 Q 1493.0 791.1 1496.5 793.9 Q 1500.0 796.7 1500.8 800.1 Q 1501.6 803.6 1500.3 807.2 Q 1499.0 810.7 1498.7 813.9 Z"/>
<path d="M 1463.9 816.9 Q 1463.9 816.9 1463.1 818.8 Q 1462.3 820.8 1461.5 822.7 Q 1460.7 824.7 1460.0 826.6 Q 1459.3 828.6 1458.2 830.5 Q 1457.1 832.4 1455.0 833.9 Q 1452.9 835.5 1450.2 836.6 Q 1447.4 837.7 1444.7 838.7 Q 1441.9 839.6 1439.7 840.9 Q 1437.4 842.3 1435.4 844.3 Q 1433.4 846.2 1430.9 848.4 Q 1428.4 850.7 1425.0 852.4 Q 1421.7 854.1 1417.7 854.9 Q 1413.8 855.8 1409.6 855.8 Q 1405.5 855.9 1401.3 855.6 Q 1397.2 855.3 1393.1 854.7 Q 1388.9 854.0 1385.2 852.8 Q 1381.5 851.5 1378.8 849.4 Q 1376.1 847.3 1374.8 844.6 Q 1373.4 841.9 1372.9 839.2 Q 1372.4 836.5 1371.7 834.3 Q 1371.1 832.1 1369.8 830.3 Q 1368.4 828.5 1366.8 826.7 Q 1365.2 824.9 1364.3 823.0 Q 1363.3 821.0 1363.4 818.9 Q 1363.6 816.9 1364.4 814.9 Q 1365.2 812.9 1366.1 811.0 Q 1366.9 809.1 1367.6 807.1 Q 1368.2 805.2 1369.4 803.3 Q 1370.5 801.4 1372.5 799.8 Q 1374.6 798.2 1377.4 797.1 Q 1380.1 796.0 1382.9 795.1 Q 1385.6 794.1 1387.9 792.8 Q 1390.1 791.4 1392.1 789.5 Q 1394.1 787.5 1396.7 785.3 Q 1399.2 783.1 1402.5 781.3 Q 1405.9 779.6 1409.8 778.8 Q 1413.8 778.0 1417.9 777.9 Q 1422.1 777.8 1426.2 778.1 Q 1430.4 778.4 1434.5 779.1 Q 1438.6 779.7 1442.3 781.0 Q 1446.0 782.2 1448.7 784.4 Q 1451.4 786.5 1452.7 789.2 Q 1454.1 791.9 1454.6 794.5 Q 1455.1 797.2 1455.8 799.4 Q 1456.4 801.6 1457.8 803.4 Q 1459.1 805.2 1460.7 807.0 Q 1462.3 808.8 1463.3 810.8 Q 1464.2 812.7 1464.1 814.8 Z"/>
</g>
<g fill="#ffffff" fill-opacity="0.38" font-family="monospace" font-size="13" letter-spacing="0.5">
<text x="774" y="294">1 042 m</text>
<text x="-8" y="756">918 m</text>
<text x="1390" y="642">1 130 m</text>
</g>
<g stroke="#ffffff" stroke-opacity="0.55" stroke-width="1.2"><line x1="1171" y1="300" x2="1189" y2="300"/><line x1="1180" y1="291" x2="1180" y2="309"/><circle cx="1180" cy="300" r="4" fill="none"/></g>
<g stroke="#ffffff" stroke-opacity="0.55" stroke-width="1.2"><line x1="271" y1="760" x2="289" y2="760"/><line x1="280" y1="751" x2="280" y2="769"/><circle cx="280" cy="760" r="4" fill="none"/></g>
</svg>